<mxfile host="app.diagrams.net" agent="Mozilla/5.0 (Windows NT 10.0; Win64; x64) AppleWebKit/537.36 (KHTML, like Gecko) Chrome/129.0.0.0 Safari/537.36" version="24.8.0">
  <diagram name="Página-1" id="LHn5iljaYR8R-6iUy0xP">
    <mxGraphModel dx="1050" dy="565" grid="1" gridSize="10" guides="1" tooltips="1" connect="1" arrows="1" fold="1" page="1" pageScale="1" pageWidth="827" pageHeight="1169" math="0" shadow="0">
      <root>
        <mxCell id="0" />
        <mxCell id="1" parent="0" />
        <mxCell id="9kWCVdmh-uN18Re_7AxD-1" value="start" style="shape=mxgraph.flowchart.terminator;strokeWidth=2;gradientColor=none;gradientDirection=north;fontStyle=0;html=1;" vertex="1" parent="1">
          <mxGeometry x="260" y="60" width="120" height="30" as="geometry" />
        </mxCell>
        <mxCell id="9kWCVdmh-uN18Re_7AxD-2" style="fontStyle=1;strokeColor=#003366;strokeWidth=1;html=1;entryX=0.5;entryY=0;entryDx=0;entryDy=0;" edge="1" parent="1" source="9kWCVdmh-uN18Re_7AxD-1" target="9kWCVdmh-uN18Re_7AxD-7">
          <mxGeometry relative="1" as="geometry">
            <mxPoint x="320" y="130" as="targetPoint" />
          </mxGeometry>
        </mxCell>
        <mxCell id="9kWCVdmh-uN18Re_7AxD-3" style="fontStyle=1;strokeColor=#003366;strokeWidth=1;html=1;exitX=0.5;exitY=1;exitDx=0;exitDy=0;entryX=0.5;entryY=0;entryDx=0;entryDy=0;entryPerimeter=0;" edge="1" parent="1" source="9kWCVdmh-uN18Re_7AxD-7" target="9kWCVdmh-uN18Re_7AxD-8">
          <mxGeometry relative="1" as="geometry">
            <mxPoint x="320" y="210" as="sourcePoint" />
            <mxPoint x="320" y="250" as="targetPoint" />
          </mxGeometry>
        </mxCell>
        <mxCell id="9kWCVdmh-uN18Re_7AxD-4" style="entryX=0.5;entryY=0;fontStyle=1;strokeColor=#003366;strokeWidth=1;html=1;exitX=0.5;exitY=1;exitDx=0;exitDy=0;exitPerimeter=0;entryDx=0;entryDy=0;entryPerimeter=0;" edge="1" parent="1" source="9kWCVdmh-uN18Re_7AxD-8" target="9kWCVdmh-uN18Re_7AxD-6">
          <mxGeometry relative="1" as="geometry">
            <mxPoint x="320" y="360" as="sourcePoint" />
            <mxPoint x="319.5" y="384" as="targetPoint" />
          </mxGeometry>
        </mxCell>
        <mxCell id="9kWCVdmh-uN18Re_7AxD-5" value="Não" style="text;fontStyle=0;html=1;strokeColor=none;gradientColor=none;fillColor=none;strokeWidth=2;" vertex="1" parent="1">
          <mxGeometry x="322" y="345" width="40" height="26" as="geometry" />
        </mxCell>
        <mxCell id="9kWCVdmh-uN18Re_7AxD-6" value="end" style="shape=mxgraph.flowchart.terminator;strokeWidth=2;gradientColor=none;gradientDirection=north;fontStyle=0;html=1;" vertex="1" parent="1">
          <mxGeometry x="260" y="400" width="120" height="30" as="geometry" />
        </mxCell>
        <mxCell id="9kWCVdmh-uN18Re_7AxD-7" value="Visualização de subscrições" style="rounded=1;whiteSpace=wrap;html=1;" vertex="1" parent="1">
          <mxGeometry x="260" y="140" width="120" height="60" as="geometry" />
        </mxCell>
        <mxCell id="9kWCVdmh-uN18Re_7AxD-8" value="Realizar&amp;nbsp;&lt;div&gt;subscrição ?&lt;/div&gt;" style="shape=mxgraph.flowchart.decision;strokeWidth=2;gradientColor=none;gradientDirection=north;fontStyle=0;html=1;" vertex="1" parent="1">
          <mxGeometry x="255" y="250" width="129" height="87" as="geometry" />
        </mxCell>
        <mxCell id="9kWCVdmh-uN18Re_7AxD-12" style="edgeStyle=orthogonalEdgeStyle;rounded=0;orthogonalLoop=1;jettySize=auto;html=1;exitX=1;exitY=0.5;exitDx=0;exitDy=0;exitPerimeter=0;entryX=0;entryY=0.5;entryDx=0;entryDy=0;" edge="1" parent="1" source="9kWCVdmh-uN18Re_7AxD-8" target="9kWCVdmh-uN18Re_7AxD-36">
          <mxGeometry relative="1" as="geometry">
            <mxPoint x="446" y="293.5" as="targetPoint" />
          </mxGeometry>
        </mxCell>
        <mxCell id="9kWCVdmh-uN18Re_7AxD-13" value="Sim" style="text;fontStyle=0;html=1;strokeColor=none;gradientColor=none;fillColor=none;strokeWidth=2;" vertex="1" parent="1">
          <mxGeometry x="399.5" y="270" width="40" height="26" as="geometry" />
        </mxCell>
        <mxCell id="9kWCVdmh-uN18Re_7AxD-36" value="Subscrição enviada para validação" style="rounded=1;whiteSpace=wrap;html=1;" vertex="1" parent="1">
          <mxGeometry x="450" y="263.5" width="120" height="60" as="geometry" />
        </mxCell>
        <mxCell id="9kWCVdmh-uN18Re_7AxD-41" style="edgeStyle=orthogonalEdgeStyle;rounded=0;orthogonalLoop=1;jettySize=auto;html=1;entryX=0.5;entryY=0;entryDx=0;entryDy=0;" edge="1" parent="1" source="9kWCVdmh-uN18Re_7AxD-37" target="9kWCVdmh-uN18Re_7AxD-40">
          <mxGeometry relative="1" as="geometry" />
        </mxCell>
        <mxCell id="9kWCVdmh-uN18Re_7AxD-42" style="edgeStyle=orthogonalEdgeStyle;rounded=0;orthogonalLoop=1;jettySize=auto;html=1;exitX=0.5;exitY=1;exitDx=0;exitDy=0;exitPerimeter=0;entryX=0.5;entryY=0;entryDx=0;entryDy=0;" edge="1" parent="1" source="9kWCVdmh-uN18Re_7AxD-37" target="9kWCVdmh-uN18Re_7AxD-38">
          <mxGeometry relative="1" as="geometry" />
        </mxCell>
        <mxCell id="9kWCVdmh-uN18Re_7AxD-37" value="Subscrição&lt;div&gt;Aceite ?&lt;/div&gt;" style="shape=mxgraph.flowchart.decision;strokeWidth=2;gradientColor=none;gradientDirection=north;fontStyle=0;html=1;" vertex="1" parent="1">
          <mxGeometry x="445.5" y="371.5" width="129" height="87" as="geometry" />
        </mxCell>
        <mxCell id="9kWCVdmh-uN18Re_7AxD-38" value="Notificado pelo produtor" style="rounded=1;whiteSpace=wrap;html=1;" vertex="1" parent="1">
          <mxGeometry x="259.5" y="500" width="120" height="60" as="geometry" />
        </mxCell>
        <mxCell id="9kWCVdmh-uN18Re_7AxD-39" style="edgeStyle=orthogonalEdgeStyle;rounded=0;orthogonalLoop=1;jettySize=auto;html=1;entryX=0.5;entryY=0;entryDx=0;entryDy=0;entryPerimeter=0;" edge="1" parent="1" source="9kWCVdmh-uN18Re_7AxD-36" target="9kWCVdmh-uN18Re_7AxD-37">
          <mxGeometry relative="1" as="geometry" />
        </mxCell>
        <mxCell id="9kWCVdmh-uN18Re_7AxD-45" style="edgeStyle=orthogonalEdgeStyle;rounded=0;orthogonalLoop=1;jettySize=auto;html=1;entryX=1;entryY=0.5;entryDx=0;entryDy=0;" edge="1" parent="1" source="9kWCVdmh-uN18Re_7AxD-40" target="9kWCVdmh-uN18Re_7AxD-7">
          <mxGeometry relative="1" as="geometry">
            <Array as="points">
              <mxPoint x="590" y="530" />
              <mxPoint x="590" y="170" />
            </Array>
          </mxGeometry>
        </mxCell>
        <mxCell id="9kWCVdmh-uN18Re_7AxD-40" value="Notificado pelo produtor" style="rounded=1;whiteSpace=wrap;html=1;" vertex="1" parent="1">
          <mxGeometry x="450" y="500" width="120" height="60" as="geometry" />
        </mxCell>
        <mxCell id="9kWCVdmh-uN18Re_7AxD-43" value="Sim" style="text;fontStyle=0;html=1;strokeColor=none;gradientColor=none;fillColor=none;strokeWidth=2;" vertex="1" parent="1">
          <mxGeometry x="514" y="467" width="40" height="26" as="geometry" />
        </mxCell>
        <mxCell id="9kWCVdmh-uN18Re_7AxD-44" value="Não" style="text;fontStyle=0;html=1;strokeColor=none;gradientColor=none;fillColor=none;strokeWidth=2;" vertex="1" parent="1">
          <mxGeometry x="319" y="455" width="40" height="26" as="geometry" />
        </mxCell>
        <mxCell id="9kWCVdmh-uN18Re_7AxD-46" style="edgeStyle=orthogonalEdgeStyle;rounded=0;orthogonalLoop=1;jettySize=auto;html=1;exitX=0;exitY=0.5;exitDx=0;exitDy=0;entryX=0;entryY=0.5;entryDx=0;entryDy=0;entryPerimeter=0;" edge="1" parent="1" source="9kWCVdmh-uN18Re_7AxD-38" target="9kWCVdmh-uN18Re_7AxD-8">
          <mxGeometry relative="1" as="geometry" />
        </mxCell>
      </root>
    </mxGraphModel>
  </diagram>
</mxfile>
